<svg width="1920" height="811" viewBox="0 0 1920 811" fill="none" xmlns="http://www.w3.org/2000/svg">
<g clip-path="url(#clip0)">
<path d="M1920 0H0V811H1920V0Z" fill="white"/>
<path d="M1920 -3H0V817H1920V-3Z" fill="#00C59C"/>
<path d="M349.5 915C606.036 915 814 709.499 814 456C814 202.501 606.036 -3 349.5 -3C92.9637 -3 -115 202.501 -115 456C-115 709.499 92.9637 915 349.5 915Z" fill="url(#paint0_radial)"/>
<path d="M132.5 841C374.677 841 571 646.915 571 407.5C571 168.085 374.677 -26 132.5 -26C-109.677 -26 -306 168.085 -306 407.5C-306 646.915 -109.677 841 132.5 841Z" fill="url(#paint1_radial)"/>
<path d="M108.5 804C242.981 804 352 696.324 352 563.5C352 430.676 242.981 323 108.5 323C-25.9813 323 -135 430.676 -135 563.5C-135 696.324 -25.9813 804 108.5 804Z" fill="url(#paint2_radial)"/>
</g>
<defs>
<radialGradient id="paint0_radial" cx="0" cy="0" r="1" gradientUnits="userSpaceOnUse" gradientTransform="translate(258.296 532.795) rotate(10.487) scale(438.488 433.296)">
<stop stop-color="#02E9B9"/>
<stop offset="1" stop-color="#02E9B9" stop-opacity="0"/>
</radialGradient>
<radialGradient id="paint1_radial" cx="0" cy="0" r="1" gradientUnits="userSpaceOnUse" gradientTransform="translate(6.3475 532.119) rotate(14.064) scale(218.367 231.899)">
<stop stop-color="#02E1E9"/>
<stop offset="1" stop-color="#00FFCA" stop-opacity="0"/>
</radialGradient>
<radialGradient id="paint2_radial" cx="0" cy="0" r="1" gradientUnits="userSpaceOnUse" gradientTransform="translate(-7.14438 640.406) rotate(23.462) scale(256.649 253.487)">
<stop stop-color="#46FB7C"/>
<stop offset="1" stop-color="#02E9B9" stop-opacity="0"/>
</radialGradient>
<clipPath id="clip0">
<rect width="1920" height="811" fill="white"/>
</clipPath>
</defs>
</svg>
