<svg xmlns="http://www.w3.org/2000/svg" xmlns:xlink="http://www.w3.org/1999/xlink" width="933" height="711" viewBox="0 0 933 711">
  <defs>
    <clipPath id="clip-path">
      <rect id="Rectangle_147" data-name="Rectangle 147" width="933" height="711" transform="translate(0 -111)" fill="#181024"/>
    </clipPath>
  </defs>
  <g id="work-2" transform="translate(0 111)" opacity="0.3" clip-path="url(#clip-path)">
    <path id="Path_77" data-name="Path 77" d="M632.981,1522.9l-420.4-258.747V524.883L420.4,399.205,941.1,709.7V581.56L420.4,263.675,105.1,448.491v758.982l-105.1-69V384.42L420.4,142.928l628.2,381.955V754.057L527.88,1064.549l105.1,73.926,530.248-322.812V448.491L527.88,73.928,632.981,0,1256.39,384.42V877.267L632.981,1264.15,434.718,1138.475V510.1L322.454,581.56v625.914l310.527,187.281,623.409-379.49v123.211Z" transform="translate(-94.143 1776.833) rotate(-135)" fill="#02e9b9"/>
    <path id="Path_79" data-name="Path 79" d="M477.9,1149.783,160.5,954.43V396.285L317.4,301.4,710.53,535.822V439.076l-393.13-240L79.35,338.61v573.03L0,859.546V290.236L317.4,107.91,791.687,396.285V569.311L398.548,803.732,477.9,859.546,878.235,615.823V338.61L398.548,55.815,477.9,0,948.571,290.236v372.1L477.9,954.43,328.211,859.546V385.122l-84.759,53.954V911.639l234.447,141.4L948.571,766.522v93.024Z" transform="translate(34.027 1596.003) rotate(-135)" fill="none" stroke="#fff" stroke-width="2"/>
  </g>
</svg>
