<svg xmlns="http://www.w3.org/2000/svg" width="136.363" height="136.363" viewBox="0 0 136.363 136.363">
  <g id="_1" data-name="1" transform="translate(-3 -3)" opacity="0.1">
    <path id="Path_96" data-name="Path 96" d="M59.818,120.636a56.818,56.818,0,1,1,56.818-56.818,56.818,56.818,0,0,1-56.818,56.818Zm0-102.272a45.454,45.454,0,1,0,45.454,45.454A45.454,45.454,0,0,0,59.818,18.364Z" transform="translate(0 18.727)" fill="#36d8a2"/>
    <path id="Path_97" data-name="Path 97" d="M36.409,110.954A28.409,28.409,0,1,1,64.818,82.545a28.409,28.409,0,0,1-28.409,28.409Zm0-45.454A17.045,17.045,0,1,0,53.454,82.545,17.045,17.045,0,0,0,36.409,65.5Zm45.454,5.682V59.818A22.727,22.727,0,1,0,59.136,37.091H47.773A34.091,34.091,0,1,1,81.863,71.182Z" transform="translate(23.409)" fill="#36d8a2"/>
  </g>
</svg>
