<svg xmlns="http://www.w3.org/2000/svg" width="135" height="135" viewBox="0 0 135 135">
  <g id="_2" data-name="2" opacity="0.1">
    <path id="Frames-24px" d="M0,0H135V135H0Z" fill="none"/>
    <g id="Solid" transform="translate(11.25 11.25)">
      <path id="Path_106" data-name="Path 106" d="M103.25,2h-90A11.261,11.261,0,0,0,2,13.25v90A11.261,11.261,0,0,0,13.25,114.5v5.625H24.5V114.5H92v5.625h11.25V114.5a11.258,11.258,0,0,0,11.25-11.25v-90A11.258,11.258,0,0,0,103.25,2Zm-.017,101.25H13.25v-90h90Z" transform="translate(-2 -2)" fill="#36d8a2"/>
      <path id="Path_107" data-name="Path 107" d="M10.625,78.125A5.625,5.625,0,0,0,16.25,83.75H78.125a5.625,5.625,0,0,0,5.625-5.625v-67.5A5.625,5.625,0,0,0,78.125,5H16.25a5.625,5.625,0,0,0-5.625,5.625v11.25H5v11.25h5.625v22.5H5v11.25h5.625Zm11.25-45H27.5V21.875H21.875V16.25H72.5V72.5H21.875V66.875H27.5V55.625H21.875Z" transform="translate(11.875 11.875)" fill="#36d8a2"/>
      <path id="Path_108" data-name="Path 108" d="M26.875,42.75A16.875,16.875,0,1,0,10,25.875,16.9,16.9,0,0,0,26.875,42.75Zm0-22.5a5.625,5.625,0,1,1-5.625,5.625A5.631,5.631,0,0,1,26.875,20.25Z" transform="translate(35 30.375)" fill="#36d8a2"/>
    </g>
  </g>
</svg>
