<svg xmlns="http://www.w3.org/2000/svg" width="135" height="135.182" viewBox="0 0 135 135.182">
  <g id="_3" data-name="3" transform="translate(-28 -27.693)" opacity="0.1">
    <path id="Path_98" data-name="Path 98" d="M313.684,284.133a28.966,28.966,0,0,0-28.972,28.895,28.672,28.672,0,0,0,4.815,15.934,2.077,2.077,0,0,1,.3.435,28.939,28.939,0,1,0,23.86-45.263Zm0,26.621a10.954,10.954,0,0,1,2.072,21.709v3.41a2.072,2.072,0,1,1-4.145,0v-3.41a10.97,10.97,0,0,1-8.882-10.755,2.072,2.072,0,1,1,4.145,0,6.816,6.816,0,0,0,6.725,6.807c.03,0,.056,0,.084,0s.056,0,.084,0a6.809,6.809,0,1,0-.084-13.617,10.954,10.954,0,0,1-2.072-21.708v-3.007a2.072,2.072,0,1,1,4.145,0v3.007a10.97,10.97,0,0,1,8.882,10.755,2.072,2.072,0,1,1-4.145,0,6.809,6.809,0,1,0-6.809,6.809Z" transform="translate(-180.712 -180.52)" fill="#36d8a2"/>
    <path id="Path_99" data-name="Path 99" d="M251.681,251.312l.735,2.165H254.1l.735-2.154Z" transform="translate(-157.46 -157.416)" fill="#36d8a2"/>
    <path id="Path_100" data-name="Path 100" d="M202.72,285.09a2.072,2.072,0,0,1-2.3.013l-3.533-2.325a2.072,2.072,0,0,1-.923-1.934l1.151-11.7-7.575-20.494h-2.364A9.188,9.188,0,0,0,178,257.833l.035,26.68a40.654,40.654,0,0,0,23.148,7.2,41.468,41.468,0,0,0,4.441-.245,33.173,33.173,0,0,1,.213-8.486Z" transform="translate(-105.592 -155.546)" fill="#36d8a2"/>
    <path id="Path_101" data-name="Path 101" d="M253.033,323.079l1.331.877,1.275-.86-1.3-13.251Z" transform="translate(-158.411 -198.619)" fill="#36d8a2"/>
    <path id="Path_102" data-name="Path 102" d="M290.512,258.293v-.462a9.188,9.188,0,0,0-9.178-9.178h-1.641l-7.471,20.287.947,9.624A33.223,33.223,0,0,1,290.512,258.293Z" transform="translate(-171.92 -155.545)" fill="#36d8a2"/>
    <path id="Path_103" data-name="Path 103" d="M169.824,152.462h3.086A13.338,13.338,0,0,1,186.177,164.6a33.059,33.059,0,0,1,10.291-1.635q1.656,0,3.271.161a41.492,41.492,0,0,0,.235-4.345,40.887,40.887,0,1,0-68.185,30.411l-.03-23.406a13.338,13.338,0,0,1,13.322-13.325h3.808a2.072,2.072,0,0,1,1.944,1.354l5.116,13.843.4-4.052A2.072,2.072,0,0,1,155,162.3l-2.145-6.32a2.072,2.072,0,0,1,1.963-2.738h.007l8.941.032a2.072,2.072,0,0,1,1.954,2.742l-2.145,6.288a2.067,2.067,0,0,1-1.1,1.209l.385,3.92,5.012-13.611a2.072,2.072,0,0,1,1.944-1.356Zm-10.2-1.366h-1.262A12.182,12.182,0,0,1,146.2,138.928v-5.554a12.182,12.182,0,0,1,12.168-12.168h1.262A12.182,12.182,0,0,1,171.8,133.374v5.553A12.183,12.183,0,0,1,159.627,151.1Z" transform="translate(-63.496 -63.497)" fill="#36d8a2"/>
    <path id="Path_104" data-name="Path 104" d="M149.737,85.675a2.072,2.072,0,0,1-1.827-1.625,52.584,52.584,0,0,0-7.54-17.89,2.072,2.072,0,0,1,.128-2.471l8.469-10.228L137.394,41.74,127.186,50.2a2.072,2.072,0,0,1-2.445.145,54.163,54.163,0,0,0-17.916-7.557,2.072,2.072,0,0,1-1.625-1.827l-1.278-13.263H87.261L85.983,40.956a2.072,2.072,0,0,1-1.625,1.827,52.583,52.583,0,0,0-17.89,7.54A2.072,2.072,0,0,1,64,50.2L53.778,41.732,42.04,53.471,50.5,63.689a2.072,2.072,0,0,1,.145,2.445A54.157,54.157,0,0,0,43.09,84.051a2.072,2.072,0,0,1-1.827,1.625L28,86.954v16.66l13.263,1.278a2.072,2.072,0,0,1,1.827,1.625,52.583,52.583,0,0,0,7.54,17.89,2.072,2.072,0,0,1-.128,2.471L42.04,137.1l11.739,11.738L64,140.373a2.072,2.072,0,0,1,2.445-.145,54.157,54.157,0,0,0,17.916,7.557,2.072,2.072,0,0,1,1.625,1.827l1.278,13.263h16.661l1.2-12.5a32.828,32.828,0,0,1-4.406-10.351,45.634,45.634,0,0,1-5.129.291,45.03,45.03,0,1,1,45.031-45.031,45.649,45.649,0,0,1-.278,5.01,32.977,32.977,0,0,1,10.679,4.527l11.977-1.2V86.953Z" fill="#36d8a2"/>
    <path id="Path_105" data-name="Path 105" d="M236.053,143.078h-1.262a8.033,8.033,0,0,0-8.023,8.023v5.553a8.033,8.033,0,0,0,8.023,8.023h1.262a8.033,8.033,0,0,0,8.023-8.023V151.1A8.033,8.033,0,0,0,236.053,143.078Z" transform="translate(-139.922 -81.225)" fill="#36d8a2"/>
  </g>
</svg>
