<svg xmlns="http://www.w3.org/2000/svg" width="125.02" height="125" viewBox="0 0 125.02 125">
  <g id="_4" data-name="4" transform="translate(0 -0.019)" opacity="0.1">
    <path id="Path_109" data-name="Path 109" d="M63.418,78a24.418,24.418,0,1,0,24.418,24.418A24.417,24.417,0,0,0,63.418,78Zm-1.953,22.464h3.907c3.232,0,5.86,2.337,5.86,5.209v3.255c0,2.872-2.629,5.209-5.86,5.209v2.93a1.953,1.953,0,1,1-3.907,0v-2.93c-3.232,0-5.86-2.337-5.86-5.209a1.953,1.953,0,0,1,3.907,0c0,.616.8,1.3,1.953,1.3h3.907c1.151,0,1.953-.686,1.953-1.3v-3.255c0-.616-.8-1.3-1.953-1.3H61.464c-3.232,0-5.86-2.337-5.86-5.209V95.907c0-2.872,2.629-5.209,5.86-5.209v-2.93a1.953,1.953,0,0,1,3.907,0V90.7c3.232,0,5.86,2.337,5.86,5.209a1.953,1.953,0,0,1-3.907,0c0-.616-.8-1.3-1.953-1.3H61.464c-1.151,0-1.953.686-1.953,1.3v3.255c0,.617.8,1.3,1.953,1.3Z" transform="translate(-0.908 -1.816)" fill="#36d8a2"/>
    <path id="Path_110" data-name="Path 110" d="M41.129,82.917a28.275,28.275,0,0,1,44.2,0A32.619,32.619,0,0,0,95.463,59.252c0-10.855-11.287-26.837-20.939-38.518L80.6,8.624a1.955,1.955,0,0,0-.113-1.949c-.153-.232-3.8-5.69-9.709-6.524a12.179,12.179,0,0,0-9,2.552A10.8,10.8,0,0,0,53.608.07C47.847.763,44.158,6.455,44,6.7a1.955,1.955,0,0,0-.052,2.013l7.29,12.873C41.752,33.18,31,48.658,31,59.252A32.619,32.619,0,0,0,41.129,82.917ZM61.278,48.837h3.907a5.867,5.867,0,0,1,5.86,5.86V58.6a5.867,5.867,0,0,1-5.86,5.86v3.907a1.953,1.953,0,0,1-3.907,0V64.464a5.867,5.867,0,0,1-5.86-5.86,1.953,1.953,0,0,1,3.907,0,1.956,1.956,0,0,0,1.953,1.953h3.907A1.956,1.956,0,0,0,67.138,58.6V54.7a1.956,1.956,0,0,0-1.953-1.953H61.278a5.867,5.867,0,0,1-5.86-5.86V42.976a5.867,5.867,0,0,1,5.86-5.86V33.209a1.953,1.953,0,1,1,3.907,0v3.907a5.867,5.867,0,0,1,5.86,5.86,1.953,1.953,0,1,1-3.907,0,1.956,1.956,0,0,0-1.953-1.953H61.278a1.956,1.956,0,0,0-1.953,1.953v3.907A1.956,1.956,0,0,0,61.278,48.837ZM47.977,7.891C49.049,6.578,51.3,4.275,54.09,3.948,56.123,3.706,58.217,4.6,60.3,6.6a1.953,1.953,0,0,0,1.352.543h.127a1.955,1.955,0,0,0,1.272-.471c2.426-2.083,4.834-2.977,7.16-2.656,2.976.411,5.276,2.682,6.348,3.949l-5.809,11.57H54.572Z" transform="translate(-0.722 0)" fill="#36d8a2"/>
    <path id="Path_111" data-name="Path 111" d="M24.418,105.835a24.339,24.339,0,0,0,9.833-2.07c-.039-.608-.066-1.219-.066-1.837,0-.673.032-1.339.079-2v0c.02-.176.029-.361.039-.547h0a28.119,28.119,0,0,1,3.854-11.9A36.632,36.632,0,0,1,30.18,76.847,1.945,1.945,0,0,1,28.325,74.9c0-.615-.8-1.3-1.953-1.3H22.464c-1.153,0-1.953.684-1.953,1.3v3.262c0,.615.8,1.3,1.953,1.3h3.907c3.233,0,5.86,2.334,5.86,5.206v3.262c0,2.872-2.627,5.206-5.86,5.206v2.93a1.953,1.953,0,1,1-3.907,0v-2.93c-3.233,0-5.86-2.334-5.86-5.206a1.953,1.953,0,1,1,3.907,0c0,.615.8,1.3,1.953,1.3h3.907c1.153,0,1.953-.684,1.953-1.3V84.67c0-.615-.8-1.3-1.953-1.3H22.464c-3.233,0-5.86-2.334-5.86-5.206V74.9c0-2.872,2.627-5.206,5.86-5.206v-2.93a1.953,1.953,0,1,1,3.907,0V69.7a6.62,6.62,0,0,1,1.172.107c.039.149.087.295.127.443a36.669,36.669,0,0,1-1.3-9.669,22.492,22.492,0,0,1,.3-3.472c-.741-.068-1.492-.107-2.252-.107a24.418,24.418,0,1,0,0,48.835ZM100.6,57c-.76,0-1.511.039-2.252.107a22.492,22.492,0,0,1,.3,3.472,36.707,36.707,0,0,1-1.211,9.356c.013-.048.028-.088.039-.13a6.621,6.621,0,0,1,1.172-.107v-2.93a1.953,1.953,0,1,1,3.907,0V69.7c3.233,0,5.86,2.334,5.86,5.206a1.953,1.953,0,0,1-3.907,0c0-.615-.8-1.3-1.953-1.3H98.648c-1.153,0-1.953.684-1.953,1.3v3.262c0,.615.8,1.3,1.953,1.3h3.907c3.233,0,5.86,2.334,5.86,5.206v3.262c0,2.872-2.627,5.206-5.86,5.206v2.93a1.953,1.953,0,1,1-3.907,0v-2.93c-3.233,0-5.86-2.334-5.86-5.206a1.953,1.953,0,1,1,3.907,0c0,.615.8,1.3,1.953,1.3h3.907c1.153,0,1.953-.684,1.953-1.3V84.67c0-.615-.8-1.3-1.953-1.3H98.648a5.865,5.865,0,0,1-5.516-3.462,36.67,36.67,0,0,1-6.274,7.571,28.118,28.118,0,0,1,3.855,11.9l0,0c.009.107.013.215.021.322.058.735.1,1.477.1,2.227,0,.618-.027,1.229-.066,1.837A24.417,24.417,0,1,0,100.6,57Z" transform="translate(0 -1.327)" fill="#36d8a2"/>
  </g>
</svg>
