<svg xmlns="http://www.w3.org/2000/svg" width="63.449" height="43.45" viewBox="0 0 63.449 43.45">
  <path id="_1" data-name="1" d="M67.988,29.047l-5.2,8.4a3.307,3.307,0,0,0,1.346,4.686,3.827,3.827,0,0,0,5.025-1.256l5.2-8.4a9.749,9.749,0,0,1,1.164,11.832,11.278,11.278,0,0,1-10.544,5.107L55.419,64.856a4.782,4.782,0,0,1-6.28,1.569,4.134,4.134,0,0,1-1.683-5.857l9.537-15.406a9.719,9.719,0,0,1-.585-11.141A11.343,11.343,0,0,1,67.988,29.047ZM41.6,24.34l9.025,8.417A14.651,14.651,0,0,0,49.5,42.331L41.6,49.7a3.038,3.038,0,0,1-4.085,0,2.567,2.567,0,0,1,0-3.81l9.512-8.871L37.511,28.15a2.567,2.567,0,0,1,0-3.81A3.038,3.038,0,0,1,41.6,24.34Zm-11.559,0a2.567,2.567,0,0,1,0,3.81l-9.512,8.871,9.512,8.871a2.567,2.567,0,0,1,0,3.81,3.038,3.038,0,0,1-4.085,0L14.4,38.926a2.567,2.567,0,0,1,0-3.81L25.952,24.34A3.038,3.038,0,0,1,30.037,24.34Z" transform="translate(-13.552 -23.551)" fill="#02e9b9"/>
</svg>
