<svg xmlns="http://www.w3.org/2000/svg" width="89.521" height="56" viewBox="0 0 89.521 56">
  <g id="_2" data-name="2" transform="translate(-800 -1381)">
    <g id="Group_140" data-name="Group 140" transform="translate(853.488 1376.917)">
      <path id="Path_87" data-name="Path 87" d="M40.511,16.083H44.7v6.043H40.511Z" transform="translate(-9.364 -2.935)" fill="#00c59c"/>
      <path id="Path_88" data-name="Path 88" d="M27.49,9.083h4.188v8.31H27.49Zm-6.979,8.31H24.7V30.235H20.511Z" transform="translate(-3.323 -1.223)" fill="#02e9b9"/>
      <path id="Path_89" data-name="Path 89" d="M10.511,35.083H14.7v6.043H10.511Z" transform="translate(-0.302 -7.582)" fill="#02e9b9"/>
      <path id="Path_93" data-name="Path 93" d="M13.36,37.321a.364.364,0,0,1-.349-.378v-3.4a.35.35,0,1,1,.7,0v3.4A.364.364,0,0,1,13.36,37.321Zm0-9.443a.364.364,0,0,1-.349-.378V24.1a.35.35,0,1,1,.7,0v3.4A.364.364,0,0,1,13.36,27.879Zm6.979-11.331a.364.364,0,0,1-.349-.378v-3.4a.35.35,0,1,1,.7,0v3.4A.364.364,0,0,1,20.339,16.547Zm0,16.241a.364.364,0,0,1-.349-.378v-3.4a.35.35,0,1,1,.7,0v3.4A.364.364,0,0,1,20.339,32.789ZM34.3,13.526a.364.364,0,0,1-.349-.378v-3.4a.35.35,0,1,1,.7,0v3.4A.364.364,0,0,1,34.3,13.526Zm0,9.443a.364.364,0,0,1-.349-.378v-3.4a.35.35,0,1,1,.7,0v3.4A.364.364,0,0,1,34.3,22.968ZM27.319,8.238a.364.364,0,0,1-.349-.378v-3.4a.35.35,0,1,1,.7,0v3.4A.364.364,0,0,1,27.319,8.238Zm0,11.709a.364.364,0,0,1-.349-.378v-3.4a.35.35,0,1,1,.7,0v3.4A.364.364,0,0,1,27.319,19.947Z" transform="translate(-1.057)" fill="#36d8a2"/>
      <path id="Path_94" data-name="Path 94" d="M14.4,35.278H10.209a.728.728,0,0,1-.7-.755V28.479a.728.728,0,0,1,.7-.755H14.4a.728.728,0,0,1,.7.755v6.043A.728.728,0,0,1,14.4,35.278Zm-3.49-1.511H13.7V29.235H10.907Zm10.469-3.022H17.188a.728.728,0,0,1-.7-.755V17.148a.728.728,0,0,1,.7-.755h4.188a.728.728,0,0,1,.7.755V29.99A.728.728,0,0,1,21.376,30.745Zm-3.49-1.511h2.792V17.9H17.886ZM28.355,17.9H24.168a.728.728,0,0,1-.7-.755V8.838a.728.728,0,0,1,.7-.755h4.188a.728.728,0,0,1,.7.755v8.31A.728.728,0,0,1,28.355,17.9Zm-3.49-1.511h2.792v-6.8H24.865Zm10.469,4.532H31.147a.728.728,0,0,1-.7-.755V14.126a.728.728,0,0,1,.7-.755h4.188a.728.728,0,0,1,.7.755V20.17A.728.728,0,0,1,35.334,20.925Zm-3.49-1.511h2.792V14.882H31.845Z" transform="translate(0 -0.978)" fill="#02e9b9"/>
    </g>
    <text id="c_2015" data-name="c 2015" transform="translate(800 1430)" fill="#02e9b9" font-size="28" font-family="Montserrat-Medium, Montserrat" font-weight="500"><tspan x="0" y="0">c </tspan><tspan y="0" font-family="Montserrat-ExtraBold, Montserrat" font-weight="800">2015</tspan></text>
    <g id="Group_141" data-name="Group 141" transform="translate(853.488 1376.917)">
      <path id="Path_87-2" data-name="Path 87" d="M40.511,16.083H44.7v6.043H40.511Z" transform="translate(-9.364 -2.935)" fill="#00c59c"/>
      <path id="Path_88-2" data-name="Path 88" d="M27.49,9.083h4.188v8.31H27.49Zm-6.979,8.31H24.7V30.235H20.511Z" transform="translate(-3.323 -1.223)" fill="#02e9b9"/>
      <path id="Path_89-2" data-name="Path 89" d="M10.511,35.083H14.7v6.043H10.511Z" transform="translate(-0.302 -7.582)" fill="#02e9b9"/>
      <path id="Path_93-2" data-name="Path 93" d="M13.36,37.321a.364.364,0,0,1-.349-.378v-3.4a.35.35,0,1,1,.7,0v3.4A.364.364,0,0,1,13.36,37.321Zm0-9.443a.364.364,0,0,1-.349-.378V24.1a.35.35,0,1,1,.7,0v3.4A.364.364,0,0,1,13.36,27.879Zm6.979-11.331a.364.364,0,0,1-.349-.378v-3.4a.35.35,0,1,1,.7,0v3.4A.364.364,0,0,1,20.339,16.547Zm0,16.241a.364.364,0,0,1-.349-.378v-3.4a.35.35,0,1,1,.7,0v3.4A.364.364,0,0,1,20.339,32.789ZM34.3,13.526a.364.364,0,0,1-.349-.378v-3.4a.35.35,0,1,1,.7,0v3.4A.364.364,0,0,1,34.3,13.526Zm0,9.443a.364.364,0,0,1-.349-.378v-3.4a.35.35,0,1,1,.7,0v3.4A.364.364,0,0,1,34.3,22.968ZM27.319,8.238a.364.364,0,0,1-.349-.378v-3.4a.35.35,0,1,1,.7,0v3.4A.364.364,0,0,1,27.319,8.238Zm0,11.709a.364.364,0,0,1-.349-.378v-3.4a.35.35,0,1,1,.7,0v3.4A.364.364,0,0,1,27.319,19.947Z" transform="translate(-1.057)" fill="#36d8a2"/>
      <path id="Path_94-2" data-name="Path 94" d="M14.4,35.278H10.209a.728.728,0,0,1-.7-.755V28.479a.728.728,0,0,1,.7-.755H14.4a.728.728,0,0,1,.7.755v6.043A.728.728,0,0,1,14.4,35.278Zm-3.49-1.511H13.7V29.235H10.907Zm10.469-3.022H17.188a.728.728,0,0,1-.7-.755V17.148a.728.728,0,0,1,.7-.755h4.188a.728.728,0,0,1,.7.755V29.99A.728.728,0,0,1,21.376,30.745Zm-3.49-1.511h2.792V17.9H17.886ZM28.355,17.9H24.168a.728.728,0,0,1-.7-.755V8.838a.728.728,0,0,1,.7-.755h4.188a.728.728,0,0,1,.7.755v8.31A.728.728,0,0,1,28.355,17.9Zm-3.49-1.511h2.792v-6.8H24.865Zm10.469,4.532H31.147a.728.728,0,0,1-.7-.755V14.126a.728.728,0,0,1,.7-.755h4.188a.728.728,0,0,1,.7.755V20.17A.728.728,0,0,1,35.334,20.925Zm-3.49-1.511h2.792V14.882H31.845Z" transform="translate(0 -0.978)" fill="#02e9b9"/>
    </g>
    <g id="Group_142" data-name="Group 142" transform="translate(827.999 1391)">
      <path id="Path_87-3" data-name="Path 87" d="M43.36,16.083H40.511v6.043H43.36Z" transform="translate(-40.036 -7.018)" fill="#00c59c"/>
      <path id="Path_88-3" data-name="Path 88" d="M23.36,9.083H20.511v8.31H23.36Zm4.749,8.31H25.26V30.235h2.849Z" transform="translate(-15.287 -5.306)" fill="#02e9b9"/>
      <path id="Path_89-3" data-name="Path 89" d="M13.36,35.083H10.511v6.043H13.36Z" transform="translate(4.21 -11.665)" fill="#02e9b9"/>
      <path id="Path_93-3" data-name="Path 93" d="M27.494,37.321c.131,0,.237-.169.237-.378v-3.4c0-.209-.106-.378-.237-.378s-.237.169-.237.378v3.4C27.257,37.152,27.363,37.321,27.494,37.321Zm0-9.443c.131,0,.237-.169.237-.378V24.1c0-.209-.106-.378-.237-.378s-.237.169-.237.378v3.4C27.257,27.709,27.363,27.879,27.494,27.879ZM22.746,16.547c.131,0,.237-.169.237-.378v-3.4c0-.209-.106-.378-.237-.378s-.237.169-.237.378v3.4C22.508,16.378,22.615,16.547,22.746,16.547Zm0,16.241c.131,0,.237-.169.237-.378v-3.4c0-.209-.106-.378-.237-.378s-.237.169-.237.378v3.4C22.508,32.62,22.615,32.789,22.746,32.789Zm-9.5-19.263c.131,0,.237-.169.237-.378v-3.4c0-.209-.106-.378-.237-.378s-.237.169-.237.378v3.4C13.011,13.357,13.117,13.526,13.248,13.526Zm0,9.443c.131,0,.237-.169.237-.378v-3.4c0-.209-.106-.378-.237-.378s-.237.169-.237.378v3.4C13.011,22.8,13.117,22.968,13.248,22.968ZM18,8.238c.131,0,.237-.169.237-.378v-3.4c0-.209-.106-.378-.237-.378s-.237.169-.237.378v3.4C17.76,8.069,17.866,8.238,18,8.238Zm0,11.709c.131,0,.237-.169.237-.378v-3.4c0-.209-.106-.378-.237-.378s-.237.169-.237.378v3.4C17.76,19.778,17.866,19.947,18,19.947Z" transform="translate(-11.349 -4.083)" fill="#36d8a2"/>
      <path id="Path_94-3" data-name="Path 94" d="M24.232,35.278h2.849c.262,0,.475-.338.475-.755V28.479c0-.417-.213-.755-.475-.755H24.232c-.262,0-.475.338-.475.755v6.043C23.757,34.94,23.97,35.278,24.232,35.278Zm2.374-1.511h-1.9V29.235h1.9Zm-7.123-3.022h2.849c.262,0,.475-.338.475-.755V17.148c0-.417-.213-.755-.475-.755H19.483c-.262,0-.475.338-.475.755V29.99C19.008,30.407,19.221,30.745,19.483,30.745Zm2.374-1.511h-1.9V17.9h1.9ZM14.735,17.9h2.849c.262,0,.475-.338.475-.755V8.838c0-.417-.213-.755-.475-.755H14.735c-.262,0-.475.338-.475.755v8.31C14.26,17.565,14.472,17.9,14.735,17.9Zm2.374-1.511h-1.9v-6.8h1.9ZM9.986,20.925h2.849c.262,0,.475-.338.475-.755V14.126c0-.417-.213-.755-.475-.755H9.986c-.262,0-.475.338-.475.755V20.17C9.511,20.587,9.724,20.925,9.986,20.925Zm2.374-1.511h-1.9V14.882h1.9Z" transform="translate(-9.511 -5.061)" fill="#02e9b9"/>
    </g>
  </g>
</svg>
