<svg xmlns="http://www.w3.org/2000/svg" width="33.212" height="33.212" viewBox="0 0 33.212 33.212">
  <g id="_1" data-name="1" transform="translate(-4.394 -2)" opacity="0.6">
    <g id="Group_128" data-name="Group 128" transform="translate(3.394 1)">
      <path id="Path_75" data-name="Path 75" d="M13.33,17.149c3.854,0,7.161-4.947,7.161-9a7.165,7.165,0,0,0-14.33,0C6.162,12.2,9.469,17.149,13.33,17.149Zm4.062,7.327a8.984,8.984,0,0,1,1.474-4.947,10.114,10.114,0,0,0-3.8-.733H11.213A10.16,10.16,0,0,0,1,28.649V33.52a.694.694,0,0,0,.692.692h22.9a.69.69,0,0,0,.692-.692v-.041A9.1,9.1,0,0,1,17.392,24.477Z" fill="#02e9b9"/>
      <path id="Path_76" data-name="Path 76" d="M34.412,23.8a7.7,7.7,0,1,0,7.715,7.7A7.725,7.725,0,0,0,34.412,23.8Zm3.634,5.978L33.4,34.422a.692.692,0,0,1-.978,0l-1.649-1.649a.692.692,0,1,1,.978-.978l1.159,1.159L37.067,28.8a.692.692,0,1,1,.978.978Z" transform="translate(-7.915 -7.024)" fill="#02e9b9"/>
    </g>
  </g>
</svg>
