<svg xmlns="http://www.w3.org/2000/svg" width="29.281" height="29.281" viewBox="0 0 29.281 29.281">
  <g id="_2" data-name="2" transform="translate(-1 -1038.362)">
    <path id="path5884" d="M15.641,2a6.746,6.746,0,0,0-1.126,13.4v2.367H5.5a1.126,1.126,0,0,0-1.126,1.126V22.43a4.5,4.5,0,1,0,2.252,0V20.019h7.883V22.43a4.5,4.5,0,1,0,2.252,0V20.019H24.65V22.43a4.5,4.5,0,1,0,2.252,0V18.893a1.126,1.126,0,0,0-1.126-1.126h-9.01V15.4A6.746,6.746,0,0,0,15.641,2Z" transform="translate(0 1036.362)" fill="#02e9b9" fill-rule="evenodd"/>
  </g>
</svg>
