<svg xmlns="http://www.w3.org/2000/svg" width="30" height="26.25" viewBox="0 0 30 26.25">
  <path id="_3" data-name="3" d="M146.125,214.734V200.75h-6.25v13.984a.884.884,0,0,0,.352.752,1.457,1.457,0,0,0,.9.264h3.75a1.457,1.457,0,0,0,.9-.264A.884.884,0,0,0,146.125,214.734Zm-8.906-16.484h3.809l-2.461-3.145a1.671,1.671,0,0,0-1.348-.605,1.875,1.875,0,1,0,0,3.75Zm13.438-1.875a1.867,1.867,0,0,0-1.875-1.875,1.671,1.671,0,0,0-1.348.605l-2.441,3.145h3.789a1.867,1.867,0,0,0,1.875-1.875Zm7.344,5v6.25a.6.6,0,0,1-.625.625H155.5v8.125a1.867,1.867,0,0,1-1.875,1.875h-21.25a1.867,1.867,0,0,1-1.875-1.875V208.25h-1.875a.6.6,0,0,1-.625-.625v-6.25a.6.6,0,0,1,.625-.625h8.594a4.375,4.375,0,1,1,0-8.75,3.956,3.956,0,0,1,3.281,1.5l2.5,3.223,2.5-3.223a3.956,3.956,0,0,1,3.281-1.5,4.375,4.375,0,1,1,0,8.75h8.594a.6.6,0,0,1,.625.625Z" transform="translate(-128 -192)" fill="#099b83"/>
</svg>
