<svg xmlns="http://www.w3.org/2000/svg" width="25" height="25" viewBox="0 0 25 25">
  <g id="ger" transform="translate(-20726.949 -8615)">
    <path id="Path_65" data-name="Path 65" d="M12.461,0A12.475,12.475,0,1,1,0,12.475,12.468,12.468,0,0,1,12.461,0Z" transform="translate(20726.977 8615)" fill="#222"/>
    <path id="Path_63" data-name="Path 63" d="M20728.318,8625.354h23.947a11.247,11.247,0,0,1,.525,4.39,15.594,15.594,0,0,1-1.023,4.383s-22.844.068-22.912,0a15.289,15.289,0,0,1-1.025-4.383A15.039,15.039,0,0,1,20728.318,8625.354Z" transform="translate(-0.861 -1.548)" fill="#e74c3c"/>
    <path id="Path_64" data-name="Path 64" d="M20727.67,8637.5h23.061a12.521,12.521,0,0,1-4.223,5.486,10.329,10.329,0,0,1-7.051,2.049c-2.891,0-5.051-.183-7.812-2.049A12.067,12.067,0,0,1,20727.67,8637.5Z" transform="translate(0.262 -5.035)" fill="#f1c40f"/>
  </g>
</svg>
