<svg xmlns="http://www.w3.org/2000/svg" width="220.435" height="71.48" viewBox="0 0 220.435 71.48">
  <g id="logo" transform="translate(-63.5 -197)">
    <g id="Group_2" data-name="Group 2" transform="translate(63.5 210.576)">
      <path id="Path_3" data-name="Path 3" d="M-2179.857-358l-14.483,8.951v25.574l7.159,4.348,17.939-10.741v4.433l-17.939,11-10.863-6.393v-26.256l-3.621,2.387v26.085l14.483,8.354,21.642-13.213V-331.4l-17.939-10.741,3.621-2.557,18.268,11.167v12.7l-21.889,12.957,3.621,2.557,21.478-13.3v-17.049l-21.478-13.384-6.83,4.348v21.738l-3.868-2.472v-21.652l10.7-6.479,21.478,13.128V-344.7Z" transform="translate(2201.664 358.001)" fill="#241d46"/>
    </g>
    <g id="Group_4" data-name="Group 4" transform="translate(120.935 197)">
      <text id="Indigo" transform="translate(81 54)" fill="#fff" font-size="57" font-family="SFProDisplay-Bold, SF Pro Display" font-weight="700"><tspan x="-81.005" y="0">Indigo</tspan></text>
      <text id="Investment_Group" data-name="Investment Group" transform="translate(41 68.48)" fill="#fff" font-size="11" font-family="SFProDisplay-Regular, SF Pro Display" opacity="0.5"><tspan x="-40.944" y="0">Investment Group</tspan></text>
    </g>
  </g>
</svg>
