<svg xmlns="http://www.w3.org/2000/svg" width="29.994" height="31.061" viewBox="0 0 29.994 31.061">
  <g id="ru" transform="translate(-20726.949 -8614)">
    <path id="Path_65" data-name="Path 65" d="M14.95,0A15,15,0,1,1,0,15,14.975,14.975,0,0,1,14.95,0Z" transform="translate(20726.982 8614)" fill="#f6f6f6"/>
    <path id="Path_63" data-name="Path 63" d="M20728.42,8625.354h28.732a13.6,13.6,0,0,1,.629,5.278,18.841,18.841,0,0,1-1.227,5.271s-27.408.082-27.49,0a18.29,18.29,0,0,1-1.23-5.271A18.1,18.1,0,0,1,20728.42,8625.354Z" transform="translate(-0.861 0.235)" fill="#2c4895"/>
    <path id="Path_64" data-name="Path 64" d="M20727.67,8637.5h27.668a15.039,15.039,0,0,1-5.068,6.6,12.363,12.363,0,0,1-8.457,2.464c-3.469,0-6.061-.22-9.375-2.464S20727.67,8637.5,20727.67,8637.5Z" transform="translate(0.458 -1.5)" fill="#e74c3c"/>
  </g>
</svg>
