<svg xmlns="http://www.w3.org/2000/svg" xmlns:xlink="http://www.w3.org/1999/xlink" width="1920" height="820" viewBox="0 0 1920 820">
  <defs>
    <radialGradient id="radial-gradient" cx="0.5" cy="0.5" r="0.472" gradientTransform="translate(0.099 -0.083) rotate(10.487)" gradientUnits="objectBoundingBox">
      <stop offset="0" stop-color="#02e9b9"/>
      <stop offset="1" stop-color="#02e9b9" stop-opacity="0"/>
    </radialGradient>
    <radialGradient id="radial-gradient-2" cx="0.5" cy="0.5" r="0.407" gradientTransform="matrix(0.996, 0.095, -0.102, 1.071, 0.053, -0.083)" gradientUnits="objectBoundingBox">
      <stop offset="0" stop-color="#02e1e9"/>
      <stop offset="1" stop-color="#00ffca" stop-opacity="0"/>
    </radialGradient>
    <radialGradient id="radial-gradient-3" cx="0.5" cy="0.5" r="0.388" gradientTransform="translate(-0.015 0.015) rotate(-1.714)" gradientUnits="objectBoundingBox">
      <stop offset="0" stop-color="#46fb7c"/>
      <stop offset="1" stop-color="#02e9b9" stop-opacity="0"/>
    </radialGradient>
    <radialGradient id="radial-gradient-4" r="0.458" gradientTransform="matrix(-0.286, 0.958, -1.01, -0.301, 1.148, 0.171)" xlink:href="#radial-gradient-2"/>
    <clipPath id="clip-path">
      <rect id="Rectangle_150" data-name="Rectangle 150" width="933" height="820" transform="translate(0 -220)" fill="#181024"/>
    </clipPath>
    <clipPath id="clip-path-2">
      <rect id="Rectangle_151" data-name="Rectangle 151" width="933" height="342" fill="#181024"/>
    </clipPath>
    <clipPath id="clip-bg-contactform">
      <rect width="1920" height="820"/>
    </clipPath>
  </defs>
  <g id="bg-contactform" clip-path="url(#clip-bg-contactform)">
    <rect width="1920" height="820" fill="#fff"/>
    <g id="Group_136" data-name="Group 136" transform="translate(-21693 -17165)">
      <rect id="Rectangle_149" data-name="Rectangle 149" width="1920" height="820" transform="translate(21693 17164)" fill="#00c59c"/>
      <g id="Group_137" data-name="Group 137">
        <ellipse id="Ellipse_41" data-name="Ellipse 41" cx="464.5" cy="459" rx="464.5" ry="459" transform="translate(21498 17255)" fill="url(#radial-gradient)"/>
        <path id="Path_83" data-name="Path 83" d="M438.5-16.961C680.677-16.961,877,170.58,877,381S680.677,762,438.5,762,26.777,836.629,26.777,626.209,196.323-16.961,438.5-16.961Z" transform="translate(21664 17120)" fill="url(#radial-gradient-2)"/>
        <ellipse id="Ellipse_43" data-name="Ellipse 43" cx="466.5" cy="460.5" rx="466.5" ry="460.5" transform="translate(22348 17060)" fill="url(#radial-gradient-3)"/>
        <ellipse id="Ellipse_44" data-name="Ellipse 44" cx="438.5" cy="433.5" rx="438.5" ry="433.5" transform="translate(22729 17127)" fill="url(#radial-gradient-4)"/>
      </g>
      <g id="Mask_Group_6" data-name="Mask Group 6" transform="translate(21693 17384)" opacity="0.1" clip-path="url(#clip-path)">
        <path id="Path_80" data-name="Path 80" d="M632.981,1522.9l-420.4-258.747V524.883L420.4,399.205,941.1,709.7V581.56L420.4,263.675,105.1,448.491v758.982l-105.1-69V384.42L420.4,142.928l628.2,381.955V754.057L527.88,1064.549l105.1,73.926,530.248-322.812V448.491L527.88,73.928,632.981,0,1256.39,384.42V877.267L632.981,1264.15,434.718,1138.475V510.1L322.454,581.56v625.914l310.527,187.281,623.409-379.49v123.211Z" transform="translate(-94.143 1776.833) rotate(-135)"/>
        <path id="Path_81" data-name="Path 81" d="M477.9,1149.783,160.5,954.43V396.285L317.4,301.4,710.53,535.822V439.076l-393.13-240L79.35,338.61v573.03L0,859.546V290.236L317.4,107.91,791.687,396.285V569.311L398.548,803.732,477.9,859.546,878.235,615.823V338.61L398.548,55.815,477.9,0,948.571,290.236v372.1L477.9,954.43,328.211,859.546V385.122l-84.759,53.954V911.639l234.447,141.4L948.571,766.522v93.024Z" transform="translate(280.027 1002.003) rotate(-135)" fill="none" stroke="#fff" stroke-width="2"/>
      </g>
      <g id="Mask_Group_7" data-name="Mask Group 7" transform="translate(22680 17164)" opacity="0.05" clip-path="url(#clip-path-2)">
        <path id="Path_82" data-name="Path 82" d="M455.529,1095.964,152.986,909.755V377.736l149.558-90.445,374.728,223.45V418.524L302.543,189.756l-226.907,133V868.967L0,819.312V276.651L302.543,102.859,754.629,377.736V542.662L379.893,766.11l75.637,53.2L837.126,587V322.76L379.893,53.2,455.529,0,904.17,276.651V631.332L455.529,909.755,312.848,819.312V367.1l-80.792,51.428V868.967l223.473,134.778,448.641-273.1v88.669Z" transform="translate(896.672 -873.305) rotate(45)"/>
        <path id="Path_84" data-name="Path 84" d="M477.9,1149.783,160.5,954.43V396.285L317.4,301.4,710.53,535.822V439.076l-393.13-240L79.35,338.61v573.03L0,859.546V290.236L317.4,107.91,791.687,396.285V569.311L398.548,803.732,477.9,859.546,878.235,615.823V338.61L398.548,55.815,477.9,0,948.571,290.236v372.1L477.9,954.43,328.211,859.546V385.122l-84.759,53.954V911.639l234.447,141.4L948.571,766.522v93.024Z" transform="translate(395.027 1227.002) rotate(-135)" fill="none" stroke="#fff" stroke-width="2"/>
      </g>
    </g>
  </g>
</svg>
