<svg xmlns="http://www.w3.org/2000/svg" width="25" height="18" viewBox="0 0 25 18">
  <path id="yt" d="M25.528,7.316a3.18,3.18,0,0,0-2.21-2.278C21.368,4.5,13.55,4.5,13.55,4.5s-7.818,0-9.767.538a3.181,3.181,0,0,0-2.21,2.278,34.536,34.536,0,0,0-.522,6.2,34.536,34.536,0,0,0,.522,6.2,3.132,3.132,0,0,0,2.21,2.242c1.95.538,9.767.538,9.767.538s7.818,0,9.767-.538a3.132,3.132,0,0,0,2.21-2.242,34.536,34.536,0,0,0,.522-6.2,34.536,34.536,0,0,0-.522-6.2ZM10.993,17.325V9.712l6.534,3.806-6.534,3.806Z" transform="translate(-1.05 -4.5)" fill="#fff"/>
</svg>
